<?xml version="1.0" standalone="no"?>
<!DOCTYPE svg PUBLIC "-//W3C//DTD SVG 20010904//EN"
 "http://www.w3.org/TR/2001/REC-SVG-20010904/DTD/svg10.dtd">
<svg version="1.0" xmlns="http://www.w3.org/2000/svg"
 width="1280.000000pt" height="1280.000000pt" viewBox="0 0 1280.000000 1280.000000"
 preserveAspectRatio="xMidYMid meet">
<metadata>
Created by potrace 1.15, written by Peter Selinger 2001-2017
</metadata>
<g transform="translate(0.000000,1280.000000) scale(0.100000,-0.100000)"
fill="#3f51b5" stroke="none">
<path d="M6305 12787 c-74 -19 -152 -65 -197 -117 -30 -34 -786 -1537 -3070
-6105 -2924 -5849 -3029 -6062 -3035 -6126 -15 -173 76 -326 237 -403 59 -27
74 -30 160 -30 79 1 104 5 150 26 30 13 1359 894 2953 1956 l2897 1932 2897
-1932 c1594 -1062 2923 -1943 2953 -1957 47 -21 70 -25 150 -25 86 0 101 3
160 30 36 17 86 50 111 72 88 79 140 223 124 347 -6 51 -383 811 -3040 6125
-2901 5801 -3036 6069 -3082 6110 -100 90 -246 128 -368 97z"/>
</g>
</svg>
